<mxfile host="app.diagrams.net" agent="Mozilla/5.0 (Windows NT 10.0; Win64; x64) AppleWebKit/537.36 (KHTML, like Gecko) Chrome/134.0.0.0 Safari/537.36" version="26.1.0">
  <diagram id="C5RBs43oDa-KdzZeNtuy" name="Page-1">
    <mxGraphModel dx="1434" dy="746" grid="1" gridSize="10" guides="1" tooltips="1" connect="1" arrows="1" fold="1" page="1" pageScale="1" pageWidth="827" pageHeight="1169" math="0" shadow="0">
      <root>
        <mxCell id="WIyWlLk6GJQsqaUBKTNV-0" />
        <mxCell id="WIyWlLk6GJQsqaUBKTNV-1" parent="WIyWlLk6GJQsqaUBKTNV-0" />
        <mxCell id="gk0OeYUGjCRyECOFVGLQ-5" value="" style="edgeStyle=orthogonalEdgeStyle;rounded=0;orthogonalLoop=1;jettySize=auto;html=1;" edge="1" parent="WIyWlLk6GJQsqaUBKTNV-1" source="WIyWlLk6GJQsqaUBKTNV-3" target="gk0OeYUGjCRyECOFVGLQ-3">
          <mxGeometry relative="1" as="geometry" />
        </mxCell>
        <mxCell id="WIyWlLk6GJQsqaUBKTNV-3" value="Start" style="rounded=1;whiteSpace=wrap;html=1;fontSize=12;glass=0;strokeWidth=1;shadow=0;" parent="WIyWlLk6GJQsqaUBKTNV-1" vertex="1">
          <mxGeometry x="96" y="50" width="144" height="40" as="geometry" />
        </mxCell>
        <mxCell id="gk0OeYUGjCRyECOFVGLQ-0" value="&lt;b&gt;&lt;font style=&quot;font-size: 14px;&quot;&gt;Model Training Phase (Using Kaggle Dataset)&lt;/font&gt;&lt;/b&gt;" style="text;html=1;align=center;verticalAlign=middle;whiteSpace=wrap;rounded=0;" vertex="1" parent="WIyWlLk6GJQsqaUBKTNV-1">
          <mxGeometry x="20" y="10" width="320" height="30" as="geometry" />
        </mxCell>
        <mxCell id="gk0OeYUGjCRyECOFVGLQ-7" value="" style="edgeStyle=orthogonalEdgeStyle;rounded=0;orthogonalLoop=1;jettySize=auto;html=1;" edge="1" parent="WIyWlLk6GJQsqaUBKTNV-1" source="gk0OeYUGjCRyECOFVGLQ-3" target="gk0OeYUGjCRyECOFVGLQ-6">
          <mxGeometry relative="1" as="geometry" />
        </mxCell>
        <mxCell id="gk0OeYUGjCRyECOFVGLQ-3" value="Load Training Data (from Kaggle Dataset)" style="rounded=0;whiteSpace=wrap;html=1;" vertex="1" parent="WIyWlLk6GJQsqaUBKTNV-1">
          <mxGeometry x="96" y="150" width="144" height="60" as="geometry" />
        </mxCell>
        <mxCell id="gk0OeYUGjCRyECOFVGLQ-9" value="" style="edgeStyle=orthogonalEdgeStyle;rounded=0;orthogonalLoop=1;jettySize=auto;html=1;" edge="1" parent="WIyWlLk6GJQsqaUBKTNV-1" source="gk0OeYUGjCRyECOFVGLQ-6" target="gk0OeYUGjCRyECOFVGLQ-8">
          <mxGeometry relative="1" as="geometry" />
        </mxCell>
        <mxCell id="gk0OeYUGjCRyECOFVGLQ-6" value="Data Preprocessing (Cleaning, Scaling, etc.)" style="whiteSpace=wrap;html=1;rounded=0;" vertex="1" parent="WIyWlLk6GJQsqaUBKTNV-1">
          <mxGeometry x="96" y="250" width="144" height="60" as="geometry" />
        </mxCell>
        <mxCell id="gk0OeYUGjCRyECOFVGLQ-11" value="" style="edgeStyle=orthogonalEdgeStyle;rounded=0;orthogonalLoop=1;jettySize=auto;html=1;" edge="1" parent="WIyWlLk6GJQsqaUBKTNV-1" source="gk0OeYUGjCRyECOFVGLQ-8" target="gk0OeYUGjCRyECOFVGLQ-10">
          <mxGeometry relative="1" as="geometry" />
        </mxCell>
        <mxCell id="gk0OeYUGjCRyECOFVGLQ-8" value="Feature Engineering &amp;amp; Selection" style="whiteSpace=wrap;html=1;rounded=0;" vertex="1" parent="WIyWlLk6GJQsqaUBKTNV-1">
          <mxGeometry x="108" y="350" width="120" height="60" as="geometry" />
        </mxCell>
        <mxCell id="gk0OeYUGjCRyECOFVGLQ-13" value="" style="edgeStyle=orthogonalEdgeStyle;rounded=0;orthogonalLoop=1;jettySize=auto;html=1;" edge="1" parent="WIyWlLk6GJQsqaUBKTNV-1" source="gk0OeYUGjCRyECOFVGLQ-10" target="gk0OeYUGjCRyECOFVGLQ-12">
          <mxGeometry relative="1" as="geometry" />
        </mxCell>
        <mxCell id="gk0OeYUGjCRyECOFVGLQ-10" value="Train Initial Machine Learning Model" style="rounded=0;whiteSpace=wrap;html=1;" vertex="1" parent="WIyWlLk6GJQsqaUBKTNV-1">
          <mxGeometry x="108" y="440" width="120" height="60" as="geometry" />
        </mxCell>
        <mxCell id="gk0OeYUGjCRyECOFVGLQ-30" value="" style="edgeStyle=orthogonalEdgeStyle;rounded=0;orthogonalLoop=1;jettySize=auto;html=1;" edge="1" parent="WIyWlLk6GJQsqaUBKTNV-1" source="gk0OeYUGjCRyECOFVGLQ-12" target="gk0OeYUGjCRyECOFVGLQ-29">
          <mxGeometry relative="1" as="geometry" />
        </mxCell>
        <mxCell id="gk0OeYUGjCRyECOFVGLQ-12" value="Evaluate Model Performance on Test Data" style="whiteSpace=wrap;html=1;rounded=0;" vertex="1" parent="WIyWlLk6GJQsqaUBKTNV-1">
          <mxGeometry x="108" y="540" width="120" height="60" as="geometry" />
        </mxCell>
        <mxCell id="gk0OeYUGjCRyECOFVGLQ-32" value="" style="edgeStyle=orthogonalEdgeStyle;rounded=0;orthogonalLoop=1;jettySize=auto;html=1;entryX=1;entryY=0.5;entryDx=0;entryDy=0;" edge="1" parent="WIyWlLk6GJQsqaUBKTNV-1" source="gk0OeYUGjCRyECOFVGLQ-29" target="gk0OeYUGjCRyECOFVGLQ-8">
          <mxGeometry relative="1" as="geometry">
            <mxPoint x="320" y="370" as="targetPoint" />
            <Array as="points">
              <mxPoint x="340" y="660" />
              <mxPoint x="340" y="380" />
            </Array>
          </mxGeometry>
        </mxCell>
        <mxCell id="gk0OeYUGjCRyECOFVGLQ-33" value="NO" style="edgeLabel;html=1;align=center;verticalAlign=middle;resizable=0;points=[];" vertex="1" connectable="0" parent="gk0OeYUGjCRyECOFVGLQ-32">
          <mxGeometry x="-0.0435" y="-2" relative="1" as="geometry">
            <mxPoint as="offset" />
          </mxGeometry>
        </mxCell>
        <mxCell id="gk0OeYUGjCRyECOFVGLQ-35" value="" style="edgeStyle=orthogonalEdgeStyle;rounded=0;orthogonalLoop=1;jettySize=auto;html=1;" edge="1" parent="WIyWlLk6GJQsqaUBKTNV-1" source="gk0OeYUGjCRyECOFVGLQ-29" target="gk0OeYUGjCRyECOFVGLQ-34">
          <mxGeometry relative="1" as="geometry" />
        </mxCell>
        <mxCell id="gk0OeYUGjCRyECOFVGLQ-36" value="YES" style="edgeLabel;html=1;align=center;verticalAlign=middle;resizable=0;points=[];" vertex="1" connectable="0" parent="gk0OeYUGjCRyECOFVGLQ-35">
          <mxGeometry x="-0.1467" y="5" relative="1" as="geometry">
            <mxPoint x="-5" as="offset" />
          </mxGeometry>
        </mxCell>
        <mxCell id="gk0OeYUGjCRyECOFVGLQ-29" value="Model performs satisfactory?" style="ellipse;whiteSpace=wrap;html=1;rounded=0;" vertex="1" parent="WIyWlLk6GJQsqaUBKTNV-1">
          <mxGeometry x="87" y="630" width="162" height="50" as="geometry" />
        </mxCell>
        <mxCell id="gk0OeYUGjCRyECOFVGLQ-34" value="Finalize &amp;amp; Save Trained Model" style="whiteSpace=wrap;html=1;rounded=0;" vertex="1" parent="WIyWlLk6GJQsqaUBKTNV-1">
          <mxGeometry x="108" y="755" width="120" height="60" as="geometry" />
        </mxCell>
        <mxCell id="gk0OeYUGjCRyECOFVGLQ-37" value="Real-World Prediction Phase (Toyota Customer List Processing)" style="text;html=1;align=center;verticalAlign=middle;whiteSpace=wrap;rounded=0;" vertex="1" parent="WIyWlLk6GJQsqaUBKTNV-1">
          <mxGeometry x="400" y="10" width="400" height="30" as="geometry" />
        </mxCell>
      </root>
    </mxGraphModel>
  </diagram>
</mxfile>
